<svg width="16" height="16" viewBox="0 0 16 16" fill="none" xmlns="http://www.w3.org/2000/svg">
<path d="M6.58468 2.21187C7.00536 0.807098 8.99464 0.807099 9.41532 2.21187C9.85894 3.69322 11.2374 4.69525 12.7696 4.69164C14.3316 4.68796 14.9454 6.62626 13.8038 7.51536L13.5029 7.74974C12.3214 8.66994 11.829 10.223 12.2646 11.6558L12.4183 12.1615C12.8312 13.5199 11.2491 14.6019 10.1328 13.7245C8.88113 12.7407 7.11887 12.7407 5.86718 13.7245C4.75092 14.6019 3.16884 13.5199 3.58175 12.1614L3.73544 11.6558C4.17096 10.223 3.6786 8.66994 2.4971 7.74974L2.19616 7.51536C1.0546 6.62626 1.6684 4.68796 3.23038 4.69164C4.76262 4.69525 6.14106 3.69322 6.58468 2.21187Z" fill="#FFB300" stroke="#10162F" stroke-width="2"/>
</svg>
