<svg width="160" height="53" viewBox="0 0 160 53" fill="none" xmlns="http://www.w3.org/2000/svg">
<path d="M41.7314 21.5192C41.7314 33.4039 32.3896 43.0384 20.8657 43.0384C9.34188 43.0384 0 33.4039 0 21.5192C0 9.63445 9.34188 0 20.8657 0C32.3896 0 41.7314 9.63445 41.7314 21.5192ZM6.3155 21.5192C6.3155 29.8067 12.8299 36.5251 20.8657 36.5251C28.9016 36.5251 35.4159 29.8067 35.4159 21.5192C35.4159 13.2317 28.9016 6.51329 20.8657 6.51329C12.8299 6.51329 6.3155 13.2317 6.3155 21.5192Z" fill="#10162F"/>
<path d="M30.7177 37.6688C29.5099 36.3344 29.5796 34.2429 30.8734 32.9972C32.1673 31.7515 34.1953 31.8234 35.4031 33.1578L46.4302 45.3398C47.638 46.6742 47.5683 48.7657 46.2745 50.0114C44.9806 51.2571 42.9526 51.1852 41.7447 49.8508L30.7177 37.6688Z" fill="#10162F"/>
<path d="M54.3509 33.223C51.1218 33.223 48.7968 32.557 47.3758 31.2248C45.9548 29.8736 45.2445 27.7137 45.2445 24.7449V17.323L45.2722 14.4399L45.2445 12.7271H51.4446V23.3176C51.4446 24.193 51.5093 24.9733 51.6384 25.6584C51.7674 26.3245 52.0442 26.8478 52.4687 27.2284C52.8933 27.609 53.5388 27.7993 54.4063 27.7993C55.292 27.7993 55.9469 27.6281 56.3715 27.2855C56.796 26.943 57.0728 26.4387 57.2018 25.7726C57.3309 25.1065 57.3956 24.2882 57.3956 23.3176V12.7271H63.4573V24.7449C63.4573 26.686 63.1528 28.2846 62.5439 29.5406C61.935 30.7776 60.9662 31.7006 59.6376 32.3096C58.309 32.9186 56.5469 33.223 54.3509 33.223ZM67.0505 32.9376L66.4969 31.2248L67.0505 28.3702V12.7271H81.3052L82.6891 13.5835L80.8623 18.4363L78.3712 18.1508H73.1952V20.4345H80.0319V25.1446H76.2122L73.1952 24.8591V27.5139H80.8623L84.1561 31.1106L82.523 32.9376H67.0505ZM93.1586 33.223C92.1434 33.223 91.138 33.1279 90.1416 32.9376C89.1634 32.7663 88.296 32.5379 87.5397 32.2525C86.783 31.967 86.2388 31.6816 85.9067 31.3961V25.43C86.6076 25.8297 87.392 26.1912 88.2594 26.5148C89.1264 26.8383 90.0032 27.0952 90.8889 27.2855C91.7929 27.4568 92.651 27.5424 93.4631 27.5424C94.5885 27.5424 95.1515 27.276 95.1515 26.7431C95.1515 26.4767 95.0314 26.2578 94.7917 26.0866C94.5702 25.8963 94.1733 25.6965 93.6015 25.4871C93.0291 25.2778 92.2175 25.0114 91.1657 24.6878C89.9478 24.2882 88.905 23.8695 88.038 23.4318C87.1889 22.9941 86.5339 22.4327 86.0728 21.7476C85.6299 21.0625 85.4085 20.149 85.4085 19.0072C85.4085 17.028 86.1741 15.439 87.7058 14.24C89.2371 13.0411 91.4791 12.4417 94.4318 12.4417C95.022 12.4417 95.6497 12.4702 96.314 12.5273C96.9966 12.5654 97.5408 12.6225 97.9471 12.6986L101.352 15.0679L99.9676 19.4068L92.8818 17.5514C92.1434 17.5514 91.7746 17.8083 91.7746 18.3221C91.7746 18.7217 92.005 19.0548 92.4666 19.3212C92.9461 19.5686 93.8041 19.9111 95.0408 20.3489C96.6828 20.9198 97.9837 21.5097 98.9435 22.1187C99.9212 22.7086 100.623 23.3842 101.047 24.1455C101.471 24.9067 101.684 25.8106 101.684 26.8573C101.684 28.7604 100.973 30.3018 99.5524 31.4817C98.1314 32.6426 96.0002 33.223 93.1586 33.223ZM108.93 32.9376V18.1794L103.394 18.4648V12.7271H120.694V18.4648L115.019 18.1794V28.3702L115.324 31.2248L115.019 32.9376H108.93ZM127.337 32.9376V18.1794L121.802 18.4648V12.7271H139.101V18.4648L133.427 18.1794V28.3702L133.731 31.2248L133.427 32.9376H127.337ZM146.936 32.9376V24.6593L140.071 14.4399V12.7271H147.019L149.786 18.6076H150.34L153.08 12.7271H160V14.4399L152.942 24.8306L153.108 27.7137V32.9376H146.936Z" fill="#10162F"/>
</svg>
