<svg width="160" height="55" viewBox="0 0 160 55" fill="none" xmlns="http://www.w3.org/2000/svg">
<path d="M41.7314 22.7244C41.7314 35.0032 32.3896 44.9571 20.8657 44.9571C9.34188 44.9571 0 35.0032 0 22.7244C0 10.4456 9.34188 0.491699 20.8657 0.491699C32.3896 0.491699 41.7314 10.4456 41.7314 22.7244ZM6.3155 22.7244C6.3155 31.2867 12.8299 38.2279 20.8657 38.2279C28.9016 38.2279 35.4159 31.2867 35.4159 22.7244C35.4159 14.1621 28.9016 7.22095 20.8657 7.22095C12.8299 7.22095 6.3155 14.1621 6.3155 22.7244Z" fill="#10162F"/>
<path d="M30.7176 39.4094C29.5098 38.0308 29.5795 35.87 30.8734 34.583C32.1672 33.296 34.1952 33.3703 35.4031 34.7489L46.4301 47.3348C47.638 48.7134 47.5683 50.8743 46.2744 52.1613C44.9806 53.4483 42.9525 53.374 41.7447 51.9954L30.7176 39.4094Z" fill="#10162F"/>
<path d="M54.351 34.8163C51.1219 34.8163 48.7969 34.1282 47.3759 32.7519C45.9549 31.3559 45.2446 29.1243 45.2446 26.0571V18.3891L45.2723 15.4104L45.2446 13.6409H51.4447V24.5825C51.4447 25.4869 51.5095 26.2931 51.6385 27.0009C51.7675 27.689 52.0443 28.2297 52.4689 28.6229C52.8934 29.0162 53.539 29.2128 54.4064 29.2128C55.2921 29.2128 55.947 29.0358 56.3716 28.6819C56.7961 28.328 57.0729 27.807 57.202 27.1188C57.331 26.4307 57.3957 25.5852 57.3957 24.5825V13.6409H63.4574V26.0571C63.4574 28.0626 63.153 29.7142 62.544 31.0118C61.9351 32.2898 60.9663 33.2434 59.6377 33.8726C58.3091 34.5018 56.547 34.8163 54.351 34.8163ZM67.0506 34.5214L66.497 32.7519L67.0506 29.8026V13.6409H81.3053L82.6892 14.5256L80.8624 19.5393L78.3713 19.2444H73.1953V21.6038H80.032V26.47H76.2123L73.1953 26.1751V28.9179H80.8624L84.1562 32.6339L82.5232 34.5214H67.0506ZM93.1587 34.8163C92.1435 34.8163 91.1381 34.718 90.1417 34.5214C89.1636 34.3444 88.2961 34.1085 87.5399 33.8136C86.7832 33.5187 86.239 33.2237 85.9068 32.9288V26.7649C86.6077 27.1778 87.3921 27.5514 88.2595 27.8856C89.1265 28.2199 90.0033 28.4853 90.889 28.6819C91.7931 28.8589 92.6511 28.9474 93.4632 28.9474C94.5886 28.9474 95.1516 28.6721 95.1516 28.1216C95.1516 27.8463 95.0315 27.6202 94.7918 27.4433C94.5703 27.2467 94.1735 27.0402 93.6016 26.8239C93.0293 26.6076 92.2176 26.3324 91.1658 25.9981C89.9479 25.5852 88.9051 25.1527 88.0381 24.7005C87.189 24.2482 86.5341 23.6682 86.0729 22.9604C85.63 22.2526 85.4086 21.3089 85.4086 20.1292C85.4086 18.0844 86.1742 16.4426 87.7059 15.204C89.2372 13.9653 91.4792 13.3459 94.4319 13.3459C95.0221 13.3459 95.6498 13.3754 96.3141 13.4344C96.9967 13.4738 97.5409 13.5327 97.9472 13.6114L101.352 16.0592L99.9677 20.5421L92.8819 18.6251C92.1435 18.6251 91.7748 18.8905 91.7748 19.4214C91.7748 19.8342 92.0051 20.1783 92.4667 20.4536C92.9462 20.7092 93.8043 21.0631 95.0409 21.5153C96.6829 22.1052 97.9838 22.7146 98.9436 23.3438C99.9213 23.9533 100.623 24.6513 101.047 25.4378C101.471 26.2242 101.684 27.1582 101.684 28.2395C101.684 30.2057 100.973 31.7983 99.5526 33.0173C98.1316 34.2166 96.0003 34.8163 93.1587 34.8163ZM108.93 34.5214V19.2739L103.394 19.5688V13.6409H120.694V19.5688L115.02 19.2739V29.8026L115.324 32.7519L115.02 34.5214H108.93ZM127.338 34.5214V19.2739L121.802 19.5688V13.6409H139.101V19.5688L133.427 19.2739V29.8026L133.731 32.7519L133.427 34.5214H127.338ZM146.936 34.5214V25.9686L140.071 15.4104V13.6409H147.019L149.787 19.7163H150.34L153.08 13.6409H160V15.4104L152.942 26.1456L153.108 29.1243V34.5214H146.936Z" fill="#10162F"/>
</svg>
