<svg width="72" height="24" viewBox="0 0 72 24" fill="none" xmlns="http://www.w3.org/2000/svg">
<path d="M18.7792 9.68364C18.7792 15.0318 14.5753 19.3673 9.38958 19.3673C4.20385 19.3673 0 15.0318 0 9.68364C0 4.3355 4.20385 0 9.38958 0C14.5753 0 18.7792 4.3355 18.7792 9.68364ZM2.84198 9.68364C2.84198 13.413 5.77344 16.4363 9.38958 16.4363C13.0057 16.4363 15.9372 13.413 15.9372 9.68364C15.9372 5.95425 13.0057 2.93098 9.38958 2.93098C5.77344 2.93098 2.84198 5.95425 2.84198 9.68364Z" fill="#10162F"/>
<path d="M13.823 16.9509C13.2794 16.3505 13.3108 15.4093 13.893 14.8487C14.4753 14.2882 15.3879 14.3205 15.9314 14.921L20.8936 20.4029C21.4371 21.0034 21.4058 21.9446 20.8235 22.5051C20.2413 23.0657 19.3287 23.0333 18.7851 22.4328L13.823 16.9509Z" fill="#10162F"/>
<path d="M24.458 14.9503C23.0049 14.9503 21.9586 14.6505 21.3192 14.0511C20.6797 13.443 20.3601 12.4711 20.3601 11.1351V7.79524L20.3726 6.49783L20.3601 5.72709H23.1502V10.4928C23.1502 10.8867 23.1793 11.2379 23.2373 11.5462C23.2954 11.8459 23.42 12.0814 23.611 12.2527C23.8021 12.424 24.0926 12.5096 24.4829 12.5096C24.8815 12.5096 25.1762 12.4325 25.3672 12.2784C25.5583 12.1242 25.6828 11.8973 25.7409 11.5975C25.799 11.2978 25.8281 10.9296 25.8281 10.4928V5.72709H28.5559V11.1351C28.5559 12.0086 28.4189 12.728 28.1448 13.2932C27.8708 13.8498 27.4349 14.2652 26.837 14.5392C26.2391 14.8132 25.4462 14.9503 24.458 14.9503ZM30.1728 14.8218L29.9237 14.0511L30.1728 12.7665V5.72709H36.5874L37.2102 6.11246L36.3881 8.29622L35.2671 8.16776H32.9379V9.19541H36.0144V11.3149H34.2956L32.9379 11.1865V12.3811H36.3881L37.8703 13.9997L37.1354 14.8218H30.1728ZM41.9214 14.9503C41.4646 14.9503 41.0122 14.9074 40.5638 14.8218C40.1236 14.7447 39.7333 14.642 39.393 14.5135C39.0525 14.385 38.8076 14.2566 38.6581 14.1281V11.4434C38.9735 11.6232 39.3265 11.7859 39.7168 11.9315C40.107 12.0771 40.5015 12.1927 40.9001 12.2784C41.3069 12.3554 41.693 12.394 42.0585 12.394C42.5649 12.394 42.8182 12.2741 42.8182 12.0343C42.8182 11.9144 42.7642 11.8159 42.6563 11.7388C42.5567 11.6532 42.3781 11.5633 42.1207 11.4691C41.8632 11.3749 41.498 11.255 41.0246 11.1094C40.4766 10.9296 40.0073 10.7412 39.6172 10.5442C39.2351 10.3472 38.9403 10.0946 38.7328 9.78631C38.5335 9.47802 38.4339 9.06696 38.4339 8.55313C38.4339 7.66249 38.7784 6.94742 39.4677 6.40791C40.1568 5.86839 41.1657 5.59863 42.4944 5.59863C42.76 5.59863 43.0424 5.61148 43.3414 5.63717C43.6486 5.6543 43.8934 5.68 44.0763 5.71424L45.6083 6.78043L44.9855 8.73297L41.7969 7.898C41.4646 7.898 41.2987 8.01361 41.2987 8.24483C41.2987 8.42467 41.4023 8.57453 41.6101 8.69443C41.8258 8.80575 42.2119 8.9599 42.7684 9.15687C43.5073 9.41379 44.0927 9.67926 44.5247 9.9533C44.9646 10.2188 45.2802 10.5228 45.4713 10.8653C45.6621 11.2079 45.7578 11.6147 45.7578 12.0857C45.7578 12.942 45.4379 13.6357 44.7987 14.1667C44.1592 14.6891 43.2001 14.9503 41.9214 14.9503ZM49.0186 14.8218V8.18061L46.5275 8.30906V5.72709H54.3122V8.30906L51.7588 8.18061V12.7665L51.8959 14.0511L51.7588 14.8218H49.0186ZM57.3019 14.8218V8.18061L54.8108 8.30906V5.72709H62.5956V8.30906L60.0422 8.18061V12.7665L60.1792 14.0511L60.0422 14.8218H57.3019ZM66.1211 14.8218V11.0966L63.0321 6.49783V5.72709H66.1584L67.404 8.37329H67.6531L68.8862 5.72709H72.0001V6.49783L68.8239 11.1736L68.8986 12.4711V14.8218H66.1211Z" fill="#10162F"/>
</svg>
