<svg width="16" height="16" viewBox="0 0 16 16" fill="none" xmlns="http://www.w3.org/2000/svg">
<g clip-path="url(#clip0_1215_98)">
<path d="M3.93408 3.41329V6.25329C3.93408 6.3859 3.98676 6.51308 4.08053 6.60685C4.1743 6.70061 4.30147 6.75329 4.43408 6.75329C4.56669 6.75329 4.69387 6.70061 4.78764 6.60685C4.8814 6.51308 4.93408 6.3859 4.93408 6.25329V3.41329L6.83408 0.879959C6.87348 0.825242 6.90171 0.7633 6.91717 0.697671C6.93263 0.632043 6.93501 0.564012 6.92418 0.497463C6.91334 0.430915 6.88951 0.367151 6.85403 0.309814C6.81855 0.252477 6.77213 0.202689 6.71742 0.163292C6.6627 0.123896 6.60076 0.0956624 6.53513 0.0802042C6.4695 0.064746 6.40147 0.0623657 6.33492 0.0731992C6.20052 0.0950784 6.08031 0.169452 6.00075 0.279959L4.40075 2.41329L2.83408 0.279959C2.79469 0.22743 2.74533 0.183176 2.68883 0.149722C2.63233 0.116268 2.56979 0.0942702 2.50479 0.0849843C2.43979 0.0756984 2.3736 0.0793064 2.30999 0.0956022C2.24638 0.111898 2.18661 0.140562 2.13408 0.179959C2.08155 0.219356 2.0373 0.268713 2.00384 0.325212C1.97039 0.381712 1.94839 0.444247 1.93911 0.509248C1.92982 0.574249 1.93343 0.640443 1.94973 0.70405C1.96602 0.767656 1.99469 0.82743 2.03408 0.879959L3.93408 3.41329ZM6.30075 3.25329V5.25329C6.30075 5.65112 6.45878 6.03265 6.74009 6.31395C7.02139 6.59526 7.40292 6.75329 7.80075 6.75329C8.19857 6.75329 8.5801 6.59526 8.86141 6.31395C9.14271 6.03265 9.30075 5.65112 9.30075 5.25329V3.25329C9.30075 2.85547 9.14271 2.47394 8.86141 2.19263C8.5801 1.91133 8.19857 1.75329 7.80075 1.75329C7.40292 1.75329 7.02139 1.91133 6.74009 2.19263C6.45878 2.47394 6.30075 2.85547 6.30075 3.25329ZM7.30075 3.25329C7.30075 3.12068 7.35343 2.99351 7.4472 2.89974C7.54096 2.80597 7.66814 2.75329 7.80075 2.75329C7.93336 2.75329 8.06053 2.80597 8.1543 2.89974C8.24807 2.99351 8.30075 3.12068 8.30075 3.25329V5.25329C8.30075 5.3859 8.24807 5.51308 8.1543 5.60685C8.06053 5.70061 7.93336 5.75329 7.80075 5.75329C7.66814 5.75329 7.54096 5.70061 7.4472 5.60685C7.35343 5.51308 7.30075 5.3859 7.30075 5.25329V3.25329ZM10.5407 6.21329C10.7105 6.38311 10.9122 6.51766 11.1341 6.60919C11.3561 6.70072 11.594 6.74743 11.8341 6.74663C12.1533 6.74347 12.4661 6.65608 12.7407 6.49329C12.7831 6.56945 12.845 6.63301 12.9199 6.67751C12.9949 6.72201 13.0803 6.74585 13.1674 6.74663C13.3 6.74663 13.4272 6.69395 13.521 6.60018C13.6147 6.50641 13.6674 6.37923 13.6674 6.24663V2.24663C13.6674 2.11402 13.6147 1.98684 13.521 1.89307C13.4272 1.7993 13.3 1.74663 13.1674 1.74663C13.0348 1.74663 12.9076 1.7993 12.8139 1.89307C12.7201 1.98684 12.6674 2.11402 12.6674 2.24663V4.91329C12.6674 5.13431 12.5796 5.34627 12.4233 5.50255C12.2671 5.65883 12.0551 5.74663 11.8341 5.74663C11.6131 5.74663 11.4011 5.65883 11.2448 5.50255C11.0885 5.34627 11.0007 5.13431 11.0007 4.91329V2.24663C11.0007 2.11402 10.9481 1.98684 10.8543 1.89307C10.7605 1.7993 10.6334 1.74663 10.5007 1.74663C10.3681 1.74663 10.241 1.7993 10.1472 1.89307C10.0534 1.98684 10.0007 2.11402 10.0007 2.24663V4.91329C9.99993 5.15498 10.0473 5.39441 10.14 5.61761C10.2327 5.84081 10.3689 6.04331 10.5407 6.21329ZM12.3341 11.58C12.3341 11.4916 12.299 11.4068 12.2365 11.3443C12.1739 11.2817 12.0892 11.2466 12.0007 11.2466C11.9123 11.2466 11.8276 11.2817 11.765 11.3443C11.7025 11.4068 11.6674 11.4916 11.6674 11.58V11.9133H12.3341V11.58ZM9.33408 11.2466C9.24568 11.2466 9.16089 11.2817 9.09838 11.3443C9.03587 11.4068 9.00075 11.4916 9.00075 11.58V12.9133C9.00075 13.0017 9.03587 13.0865 9.09838 13.149C9.16089 13.2115 9.24568 13.2466 9.33408 13.2466C9.42249 13.2466 9.50727 13.2115 9.56979 13.149C9.6323 13.0865 9.66742 13.0017 9.66742 12.9133V11.58C9.66742 11.4916 9.6323 11.4068 9.56979 11.3443C9.50727 11.2817 9.42249 11.2466 9.33408 11.2466Z" fill="#10162F"/>
<path d="M12.6676 7.91333H3.33423C2.53858 7.91333 1.77552 8.2294 1.21291 8.79201C0.650299 9.35462 0.334229 10.1177 0.334229 10.9133V12.9133C0.334229 13.709 0.650299 14.472 1.21291 15.0347C1.77552 15.5973 2.53858 15.9133 3.33423 15.9133H12.6676C13.4632 15.9133 14.2263 15.5973 14.7889 15.0347C15.3515 14.472 15.6676 13.709 15.6676 12.9133V10.9133C15.6676 10.1177 15.3515 9.35462 14.7889 8.79201C14.2263 8.2294 13.4632 7.91333 12.6676 7.91333ZM5.33423 10.58H4.33423V13.5667C4.33423 13.6551 4.29911 13.7399 4.2366 13.8024C4.17409 13.8649 4.0893 13.9 4.0009 13.9C3.91249 13.9 3.82771 13.8649 3.76519 13.8024C3.70268 13.7399 3.66756 13.6551 3.66756 13.5667V10.58H2.66756C2.57916 10.58 2.49437 10.5449 2.43186 10.4824C2.36935 10.4199 2.33423 10.3351 2.33423 10.2467C2.33423 10.1583 2.36935 10.0735 2.43186 10.011C2.49437 9.94845 2.57916 9.91333 2.66756 9.91333H5.33423C5.42263 9.91333 5.50742 9.94845 5.56993 10.011C5.63244 10.0735 5.66756 10.1583 5.66756 10.2467C5.66756 10.3351 5.63244 10.4199 5.56993 10.4824C5.50742 10.5449 5.42263 10.58 5.33423 10.58ZM7.65423 12.9133V13.58C7.65463 13.6466 7.63506 13.7118 7.59804 13.7672C7.56103 13.8226 7.50826 13.8656 7.44655 13.8908C7.38485 13.9159 7.31703 13.9219 7.25185 13.9081C7.18667 13.8943 7.12713 13.8613 7.0809 13.8133C6.94797 13.8782 6.80215 13.9124 6.65423 13.9133C6.38901 13.9133 6.13466 13.808 5.94712 13.6204C5.75959 13.4329 5.65423 13.1785 5.65423 12.9133V10.9133C5.65423 10.8249 5.68935 10.7401 5.75186 10.6776C5.81437 10.6151 5.89916 10.58 5.98756 10.58C6.07597 10.58 6.16075 10.6151 6.22326 10.6776C6.28578 10.7401 6.3209 10.8249 6.3209 10.9133V12.9133C6.3209 13.0017 6.35601 13.0865 6.41853 13.149C6.48104 13.2115 6.56582 13.2467 6.65423 13.2467C6.74263 13.2467 6.82742 13.2115 6.88993 13.149C6.95244 13.0865 6.98756 13.0017 6.98756 12.9133V10.9133C6.98756 10.8249 7.02268 10.7401 7.08519 10.6776C7.14771 10.6151 7.23249 10.58 7.3209 10.58C7.4093 10.58 7.49409 10.6151 7.5566 10.6776C7.61911 10.7401 7.65423 10.8249 7.65423 10.9133V12.9133ZM10.3209 12.9133C10.3209 13.1785 10.2155 13.4329 10.028 13.6204C9.84047 13.808 9.58611 13.9133 9.3209 13.9133C9.16794 13.9124 9.01731 13.8758 8.8809 13.8067C8.83362 13.8505 8.77463 13.8797 8.71109 13.8907C8.64754 13.9017 8.58217 13.8941 8.52289 13.8687C8.46362 13.8433 8.41298 13.8012 8.37713 13.7476C8.34128 13.694 8.32174 13.6311 8.3209 13.5667V9.56666C8.3209 9.47826 8.35601 9.39347 8.41853 9.33096C8.48104 9.26845 8.56582 9.23333 8.65423 9.23333C8.74263 9.23333 8.82742 9.26845 8.88993 9.33096C8.95244 9.39347 8.98756 9.47826 8.98756 9.56666V10.6667C9.09438 10.6276 9.20716 10.6073 9.3209 10.6067C9.58611 10.6067 9.84047 10.712 10.028 10.8996C10.2155 11.0871 10.3209 11.3414 10.3209 11.6067V12.9133ZM12.0476 13.9133C11.7683 13.897 11.5052 13.7774 11.3093 13.5778C11.1133 13.3782 10.9987 13.1128 10.9876 12.8333V11.58C10.9876 11.3148 11.0929 11.0604 11.2805 10.8729C11.468 10.6854 11.7223 10.58 11.9876 10.58C12.2528 10.58 12.5071 10.6854 12.6947 10.8729C12.8822 11.0604 12.9876 11.3148 12.9876 11.58V12.2467C12.9876 12.3351 12.9524 12.4199 12.8899 12.4824C12.8274 12.5449 12.7426 12.58 12.6542 12.58H11.6676V12.8333C11.6782 12.936 11.7225 13.0323 11.7937 13.1071C11.8649 13.1819 11.9588 13.231 12.0609 13.2467C12.2142 13.2467 12.4542 13.18 12.4542 13C12.4542 12.9116 12.4893 12.8268 12.5519 12.7643C12.6144 12.7018 12.6992 12.6667 12.7876 12.6667C12.876 12.6667 12.9608 12.7018 13.0233 12.7643C13.0858 12.8268 13.1209 12.9116 13.1209 13C13.1134 13.1303 13.0797 13.2578 13.0219 13.3749C12.9642 13.4919 12.8834 13.5962 12.7845 13.6814C12.6856 13.7666 12.5706 13.831 12.4463 13.8709C12.322 13.9107 12.1909 13.9252 12.0609 13.9133H12.0476Z" fill="#10162F"/>
</g>
<defs>
<clipPath id="clip0_1215_98">
<rect width="16" height="16" fill="white" transform="translate(0.000976562)"/>
</clipPath>
</defs>
</svg>
